<?xml version="1.0" encoding="UTF-8" standalone="no"?>
<!-- Created with Inkscape (http://www.inkscape.org/) -->

<svg
   xmlns:dc="http://purl.org/dc/elements/1.1/"
   xmlns:cc="http://creativecommons.org/ns#"
   xmlns:rdf="http://www.w3.org/1999/02/22-rdf-syntax-ns#"
   xmlns:svg="http://www.w3.org/2000/svg"
   xmlns="http://www.w3.org/2000/svg"
   xmlns:sodipodi="http://sodipodi.sourceforge.net/DTD/sodipodi-0.dtd"
   xmlns:inkscape="http://www.inkscape.org/namespaces/inkscape"
   width="32"
   height="32"
   viewBox="0 0 32.000001 32"
   id="svg4588"
   version="1.1"
   inkscape:version="0.91 r13725"
   sodipodi:docname="favicon.svg"
   inkscape:export-filename="favicon.png"
   inkscape:export-xdpi="360.73999"
   inkscape:export-ydpi="360.73999">
  <defs
     id="defs4590" />
  <sodipodi:namedview
     id="base"
     pagecolor="#ffffff"
     bordercolor="#666666"
     borderopacity="1.0"
     inkscape:pageopacity="0.0"
     inkscape:pageshadow="2"
     inkscape:zoom="16"
     inkscape:cx="22.086263"
     inkscape:cy="22.310436"
     inkscape:document-units="px"
     inkscape:current-layer="layer1"
     showgrid="false"
     fit-margin-top="0"
     fit-margin-left="0"
     fit-margin-right="0"
     fit-margin-bottom="0"
     units="px"
     borderlayer="true"
     inkscape:showpageshadow="false"
     inkscape:window-width="1920"
     inkscape:window-height="1080"
     inkscape:window-x="0"
     inkscape:window-y="0"
     inkscape:window-maximized="1" />
  <metadata
     id="metadata4593">
    <rdf:RDF>
      <cc:Work
         rdf:about="">
        <dc:format>image/svg+xml</dc:format>
        <dc:type
           rdf:resource="http://purl.org/dc/dcmitype/StillImage" />
        <dc:title></dc:title>
      </cc:Work>
    </rdf:RDF>
  </metadata>
  <g
     inkscape:label="Layer 1"
     inkscape:groupmode="layer"
     id="layer1"
     transform="translate(-0.02816827,-1020.3083)">
    <g
       id="g4705"
       transform="matrix(-1.3400462,0.094221,-0.09348556,-1.3505882,471.62116,1406.2442)"
       style="fill:#808080;fill-opacity:1">
      <path
         d="m 326.94033,305.29833 c 1.19355,-0.99772 2.20568,-2.21245 2.92791,-3.55349 l -6.94425,5.80494 c 1.44785,-0.473 2.8139,-1.15412 4.01636,-2.25141 z"
         id="path4707"
         inkscape:connector-curvature="0"
         style="fill:#808080;fill-opacity:1" />
      <path
         d="m 311.69516,288.27379 -2.8211,2.35826 c 0.72223,-1.34105 1.63477,-2.56468 2.92791,-3.5535 1.19355,-0.99772 2.5685,-1.77844 4.01636,-2.25141 l -3.36362,2.81176 c -0.3077,0.0729 -0.63321,0.34503 -0.75953,0.63492 z"
         id="path4709"
         inkscape:connector-curvature="0"
         style="fill:#808080;fill-opacity:1" />
      <path
         d="m 319.51378,291.78365 c 2.39047,0.21362 4.11381,2.27519 3.9002,4.66566 -0.21362,2.39047 -2.2752,4.11382 -4.66567,3.9002 -2.39048,-0.21362 -4.11382,-2.2752 -3.9002,-4.66567 0.21363,-2.39048 2.2752,-4.11381 4.66567,-3.90019 z"
         id="path4711"
         inkscape:connector-curvature="0"
         style="fill:#808080;fill-opacity:1" />
      <path
         d="m 313.95763,287.6728 3.90615,-3.26528 c 0.50691,-0.0551 1.01383,-0.11019 1.51185,-0.0657 l -3.58063,2.99317 -0.49802,-0.0445 c -0.12631,0.2899 -0.44291,0.46241 -0.74196,0.4353 z"
         id="path4713"
         inkscape:connector-curvature="0"
         style="fill:#808080;fill-opacity:1" />
      <path
         d="m 311.34633,291.05379 -3.68913,3.08388 c 0.0445,-0.49803 0.18861,-0.98714 0.33271,-1.47625 l 3.47213,-2.90247 z"
         id="path4715"
         inkscape:connector-curvature="0"
         style="fill:#808080;fill-opacity:1" />
      <path
         d="m 317.18944,287.45961 3.58063,-2.99317 c 0.39842,0.0356 0.79683,0.0712 1.18634,0.20642 l -3.47213,2.90247 z"
         id="path4717"
         inkscape:connector-curvature="0"
         style="fill:#808080;fill-opacity:1" />
      <path
         d="m 311.54002,293.38026 -4.12315,3.44668 c -0.064,-0.4073 -0.0284,-0.80572 0.007,-1.20413 l 4.01465,-3.35598 0.0907,0.1085 c -0.009,0.0996 0.0818,0.2081 0.0729,0.3077 z"
         id="path4719"
         inkscape:connector-curvature="0"
         style="fill:#808080;fill-opacity:1" />
      <path
         d="m 319.87872,287.69994 3.25512,-2.72107 c 0.28991,0.12631 0.67942,0.26152 0.96933,0.38782 l -2.92961,2.44896 z"
         id="path4721"
         inkscape:connector-curvature="0"
         style="fill:#808080;fill-opacity:1" />
      <path
         d="m 311.2997,296.06955 -3.58064,2.99317 c -0.0729,-0.3077 -0.14579,-0.61543 -0.20979,-1.02274 l 3.79764,-3.17457 -0.10681,1.19524 z"
         id="path4723"
         inkscape:connector-curvature="0"
         style="fill:#808080;fill-opacity:1" />
      <path
         d="m 322.568,287.94026 2.4956,-2.08615 c 0.2899,0.12631 0.57091,0.35222 0.76122,0.46962 l -2.06158,1.72334 z"
         id="path4725"
         inkscape:connector-curvature="0"
         style="fill:#808080;fill-opacity:1" />
      <path
         d="m 310.62535,299.12164 -2.17007,1.81404 c -0.17243,-0.31665 -0.24544,-0.62431 -0.32721,-0.83242 l 3.14662,-2.63038 -0.0712,0.79683 c -0.009,0.0996 -0.0178,0.19921 -0.1263,0.28992 -0.0996,-0.009 -0.10851,0.0907 -0.20811,0.0818 0,0 -0.0996,-0.009 -0.1085,0.0907 l -0.0996,-0.009 z"
         id="path4727"
         inkscape:connector-curvature="0"
         style="fill:#808080;fill-opacity:1" />
      <path
         d="m 324.82327,288.5434 1.95308,-1.63264 c 0.1814,0.217 0.4713,0.34331 0.65271,0.56032 l -1.51905,1.26983 -0.79682,-0.0712 c -0.0996,-0.009 -0.19921,-0.0178 -0.28992,-0.1263 z"
         id="path4729"
         inkscape:connector-curvature="0"
         style="fill:#808080;fill-opacity:1" />
      <path
         d="m 310.38504,301.81092 -0.97654,0.81632 c -0.18141,-0.21701 -0.35392,-0.53361 -0.4353,-0.74196 l 1.51905,-1.26983 z"
         id="path4731"
         inkscape:connector-curvature="0"
         style="fill:#808080;fill-opacity:1" />
      <path
         d="m 327.29555,288.96512 0.86803,-0.72561 0.27211,0.3255 0.27212,0.32552 -0.86804,0.72561 c -0.0818,-0.20809 -0.36281,-0.43401 -0.54422,-0.65102 z"
         id="path4733"
         inkscape:connector-curvature="0"
         style="fill:#808080;fill-opacity:1" />
      <path
         d="m 311.45566,303.31218 -0.97654,0.81631 -0.27211,-0.3255 -0.27211,-0.32552 0.65102,-0.54421 c 0.28101,0.22591 0.57092,0.35222 0.86973,0.37892 z"
         id="path4735"
         inkscape:connector-curvature="0"
         style="fill:#808080;fill-opacity:1" />
      <path
         d="m 327.81475,291.01949 1.41056,-1.17913 c 0.1814,0.21701 0.35392,0.53361 0.4353,0.74197 l -2.06158,1.72334 0.11571,-1.29484 z"
         id="path4737"
         inkscape:connector-curvature="0"
         style="fill:#808080;fill-opacity:1" />
      <path
         d="m 314.14494,303.5525 -2.27858,1.90474 c -0.18141,-0.217 -0.47132,-0.3433 -0.65272,-0.56032 l 1.73606,-1.45123 z"
         id="path4739"
         inkscape:connector-curvature="0"
         style="fill:#808080;fill-opacity:1" />
      <path
         d="m 327.14041,294.07158 3.14662,-2.63036 c 0.17243,0.31666 0.24543,0.62431 0.3272,0.83243 l -3.58063,2.99317 z"
         id="path4741"
         inkscape:connector-curvature="0"
         style="fill:#808080;fill-opacity:1" />
      <path
         d="m 316.1743,304.43664 -2.60409,2.17686 c -0.28992,-0.12631 -0.57092,-0.35222 -0.76123,-0.46963 l 2.7126,-2.26755 c 0.1903,0.11741 0.27211,0.32551 0.25433,0.5247 l -0.009,0.0996 0.39842,0.0356 z"
         id="path4743"
         inkscape:connector-curvature="0"
         style="fill:#808080;fill-opacity:1" />
      <path
         d="m 326.90009,296.76086 4.01464,-3.35597 c 0.0729,0.3077 0.1458,0.61542 0.2098,1.02273 l -4.34016,3.62809 z"
         id="path4745"
         inkscape:connector-curvature="0"
         style="fill:#808080;fill-opacity:1" />
      <path
         d="m 318.86358,304.67696 -3.36363,2.81177 c -0.2899,-0.12631 -0.67941,-0.26151 -0.96932,-0.38781 l 3.03811,-2.53967 z"
         id="path4747"
         inkscape:connector-curvature="0"
         style="fill:#808080;fill-opacity:1" />
      <path
         d="m 326.65976,299.45015 4.55717,-3.80949 c 0.064,0.40731 0.0284,0.80572 -0.007,1.20414 l -4.12316,3.44669 0.009,-0.0996 -0.19921,-0.0178 c 0,0 -0.0996,-0.009 -0.0907,-0.1085 l -0.0907,-0.10851 c 0.009,-0.0996 -0.0818,-0.2081 -0.0729,-0.30769 z"
         id="path4749"
         inkscape:connector-curvature="0"
         style="fill:#808080;fill-opacity:1" />
      <path
         d="m 322.21279,304.27347 -4.34016,3.62809 c -0.39841,-0.0356 -0.79682,-0.0712 -1.18634,-0.20641 l 3.58063,-2.99318 0.69723,0.0623 c 0.0267,-0.29881 0.2437,-0.48021 0.54252,-0.45351 l 0.69722,0.0623 z"
         id="path4751"
         inkscape:connector-curvature="0"
         style="fill:#808080;fill-opacity:1" />
      <path
         d="m 324.90207,304.5138 -4.12315,3.44668 c -0.50692,0.0551 -1.01383,0.1102 -1.51185,0.0657 l 4.34016,-3.62809 z"
         id="path4753"
         inkscape:connector-curvature="0"
         style="fill:#808080;fill-opacity:1" />
      <path
         d="m 331.08511,298.23924 c -0.0445,0.49802 -0.18861,0.98713 -0.33272,1.47625 l -3.90615,3.26527 0.11571,-1.29484 z"
         id="path4755"
         inkscape:connector-curvature="0"
         style="fill:#808080;fill-opacity:1" />
    </g>
  </g>
</svg>
